<svg version="1.1" id="Layer_1" xmlns="http://www.w3.org/2000/svg" xmlns:xlink="http://www.w3.org/1999/xlink" x="0px" y="0px"
	 width="100%" viewBox="80 63 899 899" enable-background="new 0 0 1040 1008" xml:space="preserve">
<path fill="#F5F5F7" opacity="1.000000" stroke="none" 
	d="
M1.000000,339.000000 
	C1.000000,226.013718 1.000000,113.527435 1.000000,1.020579 
	C347.610687,1.020579 694.221375,1.020579 1040.916016,1.020579 
	C1040.916016,336.903015 1040.916016,672.806091 1040.916016,1008.854553 
	C694.333374,1008.854553 347.666687,1008.854553 1.000000,1008.854553 
	C1.000000,785.778503 1.000000,562.639282 1.000000,339.000000 
M125.259140,91.039268 
	C94.810654,116.675011 80.072197,149.419601 80.087036,189.195358 
	C80.167648,405.335938 80.105698,621.476562 80.156677,837.617188 
	C80.158165,843.934143 80.420082,850.315430 81.317955,856.557800 
	C90.065910,917.376587 141.129761,961.882080 202.486435,961.901855 
	C421.126801,961.972473 639.767212,961.970398 858.407654,961.870972 
	C924.040955,961.841187 978.901672,907.018494 978.932007,841.446228 
	C979.033081,622.639221 979.002747,403.832153 978.956177,185.025146 
	C978.954956,179.381134 978.614197,173.667877 977.710815,168.103973 
	C967.634888,106.047104 917.396057,63.028214 854.476013,62.998680 
	C637.668640,62.896919 420.861267,62.927876 204.054031,63.088486 
	C194.966019,63.095215 185.724701,64.167145 176.824020,66.029503 
	C157.841110,70.001434 140.585052,77.969765 125.973038,90.995781 
	C125.973038,90.995781 125.921516,90.888481 125.259140,91.039268 
z"/>
<path fill="#B53036" opacity="1.000000" stroke="none" 
	d="
M125.878914,90.922455 
	C140.585052,77.969765 157.841110,70.001434 176.824020,66.029503 
	C185.724701,64.167145 194.966019,63.095215 204.054031,63.088486 
	C420.861267,62.927876 637.668640,62.896919 854.476013,62.998680 
	C917.396057,63.028214 967.634888,106.047104 977.710815,168.103973 
	C978.614197,173.667877 978.954956,179.381134 978.956177,185.025146 
	C979.002747,403.832153 979.033081,622.639221 978.932007,841.446228 
	C978.901672,907.018494 924.040955,961.841187 858.407654,961.870972 
	C639.767212,961.970398 421.126801,961.972473 202.486435,961.901855 
	C141.129761,961.882080 90.065910,917.376587 81.317955,856.557800 
	C80.420082,850.315430 80.158165,843.934143 80.156677,837.617188 
	C80.105698,621.476562 80.167648,405.335938 80.087036,189.195358 
	C80.072197,149.419601 94.810654,116.675011 125.597961,91.316780 
	C124.708061,93.129242 123.510902,94.690758 122.245338,96.194702 
	C115.313797,104.431862 107.857811,112.284500 101.528259,120.959663 
	C88.217140,139.203613 82.140312,160.224991 82.115364,182.510162 
	C81.894066,380.172455 81.944168,577.835022 82.018333,775.497559 
	C82.027954,801.126099 82.165436,826.771179 83.095100,852.377747 
	C83.929985,875.373291 93.544876,895.515747 107.227829,913.434631 
	C118.399292,928.064636 132.696442,939.371033 149.283356,947.835205 
	C164.381226,955.539551 180.437698,959.820618 197.060104,959.840027 
	C418.888611,960.099182 640.717712,960.129089 862.545776,959.714294 
	C874.518188,959.691895 886.915710,956.488159 898.355347,952.554993 
	C918.820862,945.518555 935.699280,932.768677 949.664185,916.019470 
	C967.621155,894.482361 976.848999,869.648315 976.901306,841.930054 
	C977.174988,696.766846 977.139526,551.602722 976.985718,406.439209 
	C976.902954,328.311829 976.600464,250.182724 975.850281,172.059631 
	C975.690308,155.403564 969.204529,140.001511 961.027588,125.578499 
	C953.232056,111.828362 942.529053,100.523499 930.242432,90.670120 
	C909.883484,74.343208 886.516296,65.153084 860.582642,65.119736 
	C640.254089,64.836403 419.924957,64.905220 199.596298,65.130173 
	C190.106628,65.139862 180.444870,66.986465 171.171249,69.242989 
	C156.363800,72.846062 142.814804,79.464455 130.929321,89.253952 
	C129.653381,90.304893 127.581543,90.389549 125.878914,90.922455 
z"/>
<path fill="#D70913" opacity="1.000000" stroke="none" 
	d="
M125.925980,90.959122 
	C127.581543,90.389549 129.653381,90.304893 130.929321,89.253952 
	C142.814804,79.464455 156.363800,72.846062 171.171249,69.242989 
	C180.444870,66.986465 190.106628,65.139862 199.596298,65.130173 
	C419.924957,64.905220 640.254089,64.836403 860.582642,65.119736 
	C886.516296,65.153084 909.883484,74.343208 930.242432,90.670120 
	C942.529053,100.523499 953.232056,111.828362 961.027588,125.578499 
	C969.204529,140.001511 975.690308,155.403564 975.850281,172.059631 
	C976.600464,250.182724 976.902954,328.311829 976.985718,406.439209 
	C977.139526,551.602722 977.174988,696.766846 976.901306,841.930054 
	C976.848999,869.648315 967.621155,894.482361 949.664185,916.019470 
	C935.699280,932.768677 918.820862,945.518555 898.355347,952.554993 
	C886.915710,956.488159 874.518188,959.691895 862.545776,959.714294 
	C640.717712,960.129089 418.888611,960.099182 197.060104,959.840027 
	C180.437698,959.820618 164.381226,955.539551 149.283356,947.835205 
	C132.696442,939.371033 118.399292,928.064636 107.227829,913.434631 
	C93.544876,895.515747 83.929985,875.373291 83.095100,852.377747 
	C82.165436,826.771179 82.027954,801.126099 82.018333,775.497559 
	C81.944168,577.835022 81.894066,380.172455 82.115364,182.510162 
	C82.140312,160.224991 88.217140,139.203613 101.528259,120.959663 
	C107.857811,112.284500 115.313797,104.431862 122.245338,96.194702 
	C123.510902,94.690758 124.708061,93.129242 125.929153,91.241386 
	C125.921516,90.888481 125.973038,90.995781 125.925980,90.959122 
M758.942566,578.464661 
	C762.308960,570.497559 765.809082,562.583984 769.019409,554.554443 
	C785.559204,513.185425 793.169495,470.420502 787.666687,425.933838 
	C779.569702,360.474579 751.076904,305.204620 701.720947,261.519653 
	C643.705627,210.170380 575.425537,188.476212 498.506897,197.508209 
	C431.295013,205.400421 375.097198,235.922241 331.849976,287.984406 
	C275.709991,355.567230 257.023987,432.769623 278.314117,518.482300 
	C288.343689,558.860657 306.903259,595.789551 328.697845,631.053894 
	C355.766937,674.852661 387.282776,715.315979 422.754333,752.559570 
	C442.956512,773.770935 464.251648,793.966248 485.529755,814.117310 
	C495.851135,823.892090 508.941406,828.586121 523.064148,830.051086 
	C545.107605,832.337830 563.564575,824.350098 579.549316,809.800293 
	C611.135010,781.049866 640.654724,750.310181 667.962158,717.456787 
	C703.426208,674.790222 734.889709,629.501221 758.942566,578.464661 
z"/>
<path fill="#FFFEFE" opacity="1.000000" stroke="none" 
	d="
M758.805054,578.817383 
	C734.889709,629.501221 703.426208,674.790222 667.962158,717.456787 
	C640.654724,750.310181 611.135010,781.049866 579.549316,809.800293 
	C563.564575,824.350098 545.107605,832.337830 523.064148,830.051086 
	C508.941406,828.586121 495.851135,823.892090 485.529755,814.117310 
	C464.251648,793.966248 442.956512,773.770935 422.754333,752.559570 
	C387.282776,715.315979 355.766937,674.852661 328.697845,631.053894 
	C306.903259,595.789551 288.343689,558.860657 278.314117,518.482300 
	C257.023987,432.769623 275.709991,355.567230 331.849976,287.984406 
	C375.097198,235.922241 431.295013,205.400421 498.506897,197.508209 
	C575.425537,188.476212 643.705627,210.170380 701.720947,261.519653 
	C751.076904,305.204620 779.569702,360.474579 787.666687,425.933838 
	C793.169495,470.420502 785.559204,513.185425 769.019409,554.554443 
	C765.809082,562.583984 762.308960,570.497559 758.805054,578.817383 
M357.606812,473.895905 
	C361.124786,488.923309 368.084259,502.251282 377.828949,514.118530 
	C379.756256,516.465576 380.149078,518.235229 379.028351,521.176270 
	C372.215729,539.054077 382.428925,557.424072 401.212738,561.190918 
	C403.803741,561.710510 404.651947,562.631897 405.086395,565.224854 
	C407.091644,577.193176 414.131439,584.968811 425.696259,588.519836 
	C428.512482,589.384583 431.513855,589.646301 434.345215,590.169617 
	C437.829681,608.331909 450.132141,617.451477 467.026306,617.012817 
	C468.322205,616.979248 470.315948,618.828064 470.901489,620.248596 
	C477.733521,636.823853 495.731262,643.922729 511.805878,635.858032 
	C516.040222,633.733582 519.669434,630.402954 523.855835,627.427673 
	C528.573181,629.981079 533.555359,632.986267 538.790833,635.454468 
	C555.164185,643.173645 574.680786,636.698669 580.980164,621.622192 
	C582.271973,618.530457 584.468689,619.245789 586.712219,619.312561 
	C602.844177,619.792725 615.137695,611.038147 618.879883,596.412781 
	C619.159851,595.318787 619.452759,594.228149 619.714417,593.231995 
	C642.957336,590.445740 649.303284,584.333435 654.080872,560.278320 
	C654.497314,560.137634 654.947998,559.886902 655.418823,559.840454 
	C675.646912,557.845276 687.954102,536.636963 680.127808,516.874084 
	C679.657654,515.686768 680.384949,513.436218 681.330627,512.365173 
	C696.909424,494.720886 704.874512,473.863770 704.753479,450.660400 
	C704.503174,402.709412 682.007507,367.286621 639.664490,345.838562 
	C601.587585,326.551453 562.955017,329.851654 525.388733,349.014923 
	C522.561829,350.457001 520.680481,350.574646 517.813477,348.831787 
	C495.265656,335.124603 470.953766,330.262451 444.935364,335.465790 
	C387.711975,346.909729 342.235046,408.222961 357.606812,473.895905 
z"/>
<path fill="#D11019" opacity="1.000000" stroke="none" 
	d="
M357.466431,473.504120 
	C342.235046,408.222961 387.711975,346.909729 444.935364,335.465790 
	C470.953766,330.262451 495.265656,335.124603 517.813477,348.831787 
	C520.680481,350.574646 522.561829,350.457001 525.388733,349.014923 
	C562.955017,329.851654 601.587585,326.551453 639.664490,345.838562 
	C682.007507,367.286621 704.503174,402.709412 704.753479,450.660400 
	C704.874512,473.863770 696.909424,494.720886 681.330627,512.365173 
	C680.384949,513.436218 679.657654,515.686768 680.127808,516.874084 
	C687.954102,536.636963 675.646912,557.845276 655.418823,559.840454 
	C654.947998,559.886902 654.497314,560.137634 654.080872,560.278320 
	C649.303284,584.333435 642.957336,590.445740 619.714417,593.231995 
	C619.452759,594.228149 619.159851,595.318787 618.879883,596.412781 
	C615.137695,611.038147 602.844177,619.792725 586.712219,619.312561 
	C584.468689,619.245789 582.271973,618.530457 580.980164,621.622192 
	C574.680786,636.698669 555.164185,643.173645 538.790833,635.454468 
	C533.555359,632.986267 528.573181,629.981079 523.855835,627.427673 
	C519.669434,630.402954 516.040222,633.733582 511.805878,635.858032 
	C495.731262,643.922729 477.733521,636.823853 470.901489,620.248596 
	C470.315948,618.828064 468.322205,616.979248 467.026306,617.012817 
	C450.132141,617.451477 437.829681,608.331909 434.345215,590.169617 
	C431.513855,589.646301 428.512482,589.384583 425.696259,588.519836 
	C414.131439,584.968811 407.091644,577.193176 405.086395,565.224854 
	C404.651947,562.631897 403.803741,561.710510 401.212738,561.190918 
	C382.428925,557.424072 372.215729,539.054077 379.028351,521.176270 
	C380.149078,518.235229 379.756256,516.465576 377.828949,514.118530 
	C368.084259,502.251282 361.124786,488.923309 357.466431,473.504120 
M460.629181,576.239807 
	C460.453583,576.554382 460.277954,576.868958 460.083984,577.085266 
	C460.083984,577.085266 460.183014,577.099182 459.641266,577.248291 
	C459.464417,577.563477 459.287567,577.878723 459.092651,578.091919 
	C459.092651,578.091919 459.194885,578.109009 458.647949,578.257507 
	C458.478363,578.578979 458.308746,578.900391 458.114502,579.121582 
	C458.114502,579.121582 458.210114,579.160400 457.441498,579.123657 
	C453.157990,582.327026 452.478333,588.931091 456.030121,591.963074 
	C456.030121,591.963074 456.084778,591.881531 456.060364,592.546692 
	C456.507416,592.936279 456.954437,593.325806 457.269836,593.766785 
	C457.269836,593.766785 457.314301,593.632629 457.362610,594.223267 
	C457.705536,594.352051 458.048492,594.480774 458.191589,594.748840 
	C458.191589,594.748840 458.341064,594.556519 458.414337,595.227783 
	C459.009857,595.423096 459.605377,595.618408 460.109528,595.867615 
	C460.109528,595.867615 460.123932,595.762512 460.363403,596.512451 
	C465.135162,599.278687 469.296387,598.519836 471.548767,594.508850 
	C471.548767,594.508850 471.576569,594.425720 472.149994,594.554871 
	C472.291931,594.231445 472.433899,593.908020 472.974152,594.007446 
	C472.843781,593.864624 472.713440,593.721863 473.162628,593.593140 
	C473.226685,593.259583 473.290710,592.926025 473.440887,592.500916 
	C473.440887,592.500916 473.498047,592.388977 474.131561,592.538086 
	C474.412811,592.010803 474.694061,591.483521 475.001068,590.999573 
	C475.001068,590.999573 474.953033,590.984375 475.448181,590.804260 
	C475.620789,590.509155 475.793365,590.214050 475.987549,589.987793 
	C475.987549,589.987793 475.918427,589.967163 476.426605,589.797424 
	C476.602936,589.498596 476.779297,589.199768 476.976868,588.974854 
	C476.976868,588.974854 476.901550,588.959595 477.414124,588.777588 
	C477.584564,588.469849 477.754974,588.162170 477.937775,587.938721 
	C477.937775,587.938721 477.853363,587.927490 478.384460,587.769836 
	C478.560547,587.459106 478.736603,587.148315 478.929169,586.928589 
	C478.929169,586.928589 478.837250,586.918091 479.373138,586.747681 
	C479.534119,586.424438 479.695068,586.101196 479.881439,585.882507 
	C479.881439,585.882507 479.775696,585.862671 480.330017,585.725586 
	C480.497131,585.401062 480.664276,585.076599 480.858704,584.859314 
	C480.858704,584.859314 480.751282,584.832825 481.313324,584.717773 
	C481.486176,584.395081 481.659027,584.072449 481.859406,583.859070 
	C481.859406,583.859070 481.749817,583.832764 482.311890,583.714905 
	C482.480255,583.390015 482.648621,583.065063 482.870697,582.866516 
	C482.870697,582.866516 482.755157,582.792236 483.487061,582.867920 
	C484.845001,581.115906 486.202942,579.363892 487.820831,578.033386 
	C487.820831,578.033386 487.575623,577.607178 488.273315,577.650391 
	C488.664764,576.943542 489.056213,576.236633 489.535675,575.545105 
	C489.535675,575.545105 489.517822,575.457581 490.205872,575.601196 
	C490.796509,574.719666 491.387115,573.838135 491.999847,573.000854 
	C491.999847,573.000854 491.952606,572.986023 492.458832,572.797302 
	C492.636322,572.494263 492.813812,572.191223 493.107391,571.453674 
	C493.263641,571.166382 493.504211,571.004028 494.367950,570.786194 
	C494.546844,570.465881 494.725739,570.145508 494.924530,569.915955 
	C494.924530,569.915955 494.836273,569.886780 495.597961,569.886597 
	C499.631683,566.536499 500.167328,561.614441 496.970093,558.039856 
	C496.970093,558.039856 496.921997,558.107239 496.957001,557.453796 
	C496.543945,557.024048 496.130859,556.594299 495.839691,556.137268 
	C495.839691,556.137268 495.809998,556.258606 495.713013,555.699097 
	C495.401550,555.511658 495.090088,555.324158 494.890900,555.114929 
	C494.890900,555.114929 494.869812,555.227356 494.700409,554.521606 
	C490.379639,550.288452 486.077393,550.161255 483.062561,554.064148 
	C483.062561,554.064148 483.167847,554.135986 482.488953,554.097900 
	C482.160400,554.568359 481.831848,555.038818 481.416931,555.495605 
	C481.416931,555.495605 481.407043,555.582458 480.703888,555.278381 
	C479.315887,556.991272 477.927887,558.704224 476.428345,560.368347 
	C476.428345,560.368347 476.475403,560.480652 475.774780,560.372620 
	C475.197601,561.271118 474.620422,562.169617 474.006073,563.007324 
	C474.006073,563.007324 474.074097,563.028198 473.568573,563.205017 
	C473.395416,563.505798 473.222260,563.806580 473.030914,564.030518 
	C473.030914,564.030518 473.108002,564.047546 472.589325,564.214355 
	C472.414398,564.519836 472.239471,564.825378 472.049744,565.050476 
	C472.049744,565.050476 472.130737,565.061951 471.605072,565.223389 
	C471.428864,565.531494 471.252655,565.839661 471.063263,566.063660 
	C471.063263,566.063660 471.147644,566.074707 470.616882,566.230652 
	C470.439209,566.540039 470.261566,566.849426 470.070038,567.070068 
	C470.070038,567.070068 470.158936,567.083008 469.624451,567.233887 
	C469.445435,567.543945 469.266418,567.853943 469.072937,568.072815 
	C469.072937,568.072815 469.164185,568.086365 468.627197,568.239014 
	C468.452118,568.552856 468.277069,568.866699 468.083527,569.084778 
	C468.083527,569.084778 468.180054,569.098450 467.639557,569.248352 
	C467.463928,569.563477 467.288269,569.878601 467.094208,570.094238 
	C467.094208,570.094238 467.193878,570.111816 466.648743,570.252197 
	C466.470642,570.567078 466.292572,570.881897 466.095886,571.096375 
	C466.095886,571.096375 466.196381,571.114502 465.650421,571.250793 
	C465.468994,571.563721 465.287567,571.876709 465.090393,572.090271 
	C465.090393,572.090271 465.189209,572.109070 464.644745,572.241028 
	C464.459076,572.550049 464.273407,572.859070 464.073853,573.074219 
	C464.073853,573.074219 464.167603,573.088745 463.630188,573.235962 
	C463.449158,573.546021 463.268127,573.856079 463.073029,574.073303 
	C463.073029,574.073303 463.165924,574.087219 462.628998,574.235352 
	C462.447968,574.545349 462.266937,574.855347 462.072021,575.072083 
	C462.072021,575.072083 462.165314,575.085632 461.628418,575.235535 
	C461.448212,575.546326 461.268005,575.857056 461.073395,576.073425 
	C461.073395,576.073425 461.167877,576.087097 460.629181,576.239807 
M546.805420,534.686218 
	C544.713928,532.776855 542.249146,531.135315 540.634216,528.884094 
	C538.965271,526.557556 537.409912,523.723450 537.081055,520.959534 
	C536.562561,516.601746 539.112366,513.213501 543.056091,511.462097 
	C547.274475,509.588745 551.187317,510.737000 554.532715,513.873047 
	C564.015564,522.762634 573.502136,531.648315 582.995483,540.526733 
	C593.218933,550.088074 603.387817,559.709290 613.707642,569.165527 
	C618.814026,573.844604 625.798462,573.491638 630.241333,568.683228 
	C634.411743,564.169678 634.028625,558.064941 629.196228,553.062195 
	C627.809387,551.626465 626.256042,550.353149 624.815857,548.967163 
	C606.566284,531.403442 588.200867,513.956299 570.226868,496.114807 
	C567.858215,493.763550 566.538086,489.410370 566.461426,485.946167 
	C566.374878,482.028503 569.253357,478.997620 573.377563,477.708466 
	C578.031738,476.253693 581.407288,478.366333 584.565125,481.397156 
	C603.559692,499.627960 622.517639,517.897461 641.609192,536.026367 
	C647.471863,541.593384 654.739807,541.571960 659.274780,536.464844 
	C663.583984,531.612000 662.631653,525.367676 656.897278,519.743225 
	C643.334900,506.440796 629.835205,493.074554 616.295776,479.748749 
	C597.886169,461.629639 579.496582,443.489929 561.028381,425.430664 
	C554.148254,418.702820 548.809082,418.390778 541.153748,424.124268 
	C537.557495,426.817749 534.284485,429.945129 530.669800,432.611145 
	C522.918152,438.328369 515.601807,444.992310 507.100159,449.264618 
	C487.278625,459.225464 467.377014,459.490723 448.668274,445.803802 
	C442.745178,441.470520 440.564331,435.912933 442.962708,429.736420 
	C444.181793,426.596985 446.446625,423.691589 448.782135,421.187164 
	C459.464722,409.732300 470.343781,398.460754 481.144073,387.115509 
	C488.323914,379.573395 495.489960,372.018127 502.904144,364.214081 
	C492.222565,358.020844 481.220001,354.570770 469.384705,354.079926 
	C441.722534,352.932770 419.325836,364.135468 400.594666,383.757904 
	C374.658386,410.928345 367.525818,451.271637 383.203888,483.759644 
	C386.174744,489.915863 390.243011,495.542450 394.170349,502.015717 
	C402.393677,492.949219 411.150940,488.037598 422.378479,489.213562 
	C433.621277,490.391113 441.193542,496.886932 446.209717,506.579346 
	C464.377350,496.685242 489.403900,506.392944 491.237854,532.426025 
	C511.252808,535.805542 520.988892,551.741455 517.436340,570.840393 
	C533.514038,578.547607 540.946594,590.700745 536.457886,608.851807 
	C536.263245,609.639099 537.052734,611.217346 537.805359,611.601562 
	C542.370361,613.932251 546.906189,616.496826 551.751343,618.047668 
	C555.809692,619.346619 559.779297,617.941895 561.996216,613.866638 
	C564.161377,609.886414 562.058838,606.825195 559.282959,604.141846 
	C554.370850,599.393494 549.385742,594.720886 544.443176,590.003906 
	C541.290710,586.995422 539.927185,583.453491 541.413086,579.159058 
	C543.911438,571.938477 551.986145,569.911865 557.984436,575.223083 
	C565.218567,581.628540 572.223267,588.292908 579.328308,594.844116 
	C585.039429,600.110046 592.071167,600.398682 596.640137,595.556763 
	C600.928833,591.011841 599.866089,584.386047 594.014526,578.910034 
	C578.443848,564.338745 562.886414,549.753296 546.805420,534.686218 
M638.588867,472.910065 
	C647.456543,481.610260 656.324219,490.310455 665.187256,499.006165 
	C674.823547,489.260559 682.568115,472.445557 683.936707,457.507507 
	C686.749023,426.810730 675.705078,401.147491 653.748474,380.377441 
	C613.209412,342.029114 553.493774,347.498291 515.937500,380.676819 
	C504.740295,390.568787 495.010925,402.123383 484.622131,412.928833 
	C478.413971,419.385986 472.231232,425.867645 466.037079,432.338287 
	C466.094330,432.870270 466.151581,433.402252 466.208832,433.934204 
	C470.841919,434.659424 475.486755,436.058380 480.105743,435.977631 
	C491.785034,435.773499 501.429901,430.107056 510.356415,423.157318 
	C517.045410,417.949615 523.200745,411.979706 530.223267,407.292511 
	C547.838440,395.535156 561.592102,397.233124 576.753784,412.162994 
	C597.173767,432.270782 617.636536,452.335114 638.588867,472.910065 
M460.796783,547.295044 
	C462.862885,545.125732 464.994049,543.014221 466.981781,540.775330 
	C471.382324,535.818787 471.612701,529.337463 467.611755,525.465332 
	C463.792816,521.769287 457.815857,522.371704 452.973450,527.205261 
	C444.845978,535.317932 436.791473,543.505493 428.808258,551.760132 
	C424.008209,556.723389 423.686462,562.730652 427.749664,566.804688 
	C431.831543,570.897461 438.299713,570.301758 443.213440,565.310669 
	C448.935883,559.498230 454.610046,553.638245 460.796783,547.295044 
M397.440643,531.702576 
	C397.420197,536.179932 399.428894,539.406067 403.658722,540.874695 
	C407.904968,542.348999 411.353699,540.834595 414.326691,537.571594 
	C418.012115,533.526733 422.026886,529.779724 425.671661,525.700623 
	C429.562500,521.346252 429.310211,515.479614 425.377533,511.871094 
	C421.569550,508.376953 416.379852,508.815613 412.100250,513.109131 
	C408.235931,516.986023 404.322205,520.831177 400.723145,524.946411 
	C399.277405,526.599548 398.613007,528.936035 397.440643,531.702576 
M501.155945,593.560974 
	C497.993774,596.744629 494.709076,599.817444 491.701599,603.141052 
	C488.219696,606.988953 488.362427,612.130127 491.761810,615.751221 
	C495.183594,619.396118 501.144470,620.005615 504.793457,616.601135 
	C508.423950,613.213806 511.850677,609.538818 514.921631,605.639526 
	C518.297180,601.353455 517.761169,595.888123 514.204956,592.543152 
	C510.713165,589.258789 506.456909,589.432312 501.155945,593.560974 
z"/>
<path fill="#FFFBFB" opacity="1.000000" stroke="none" 
	d="
M547.064575,534.929810 
	C562.886414,549.753296 578.443848,564.338745 594.014526,578.910034 
	C599.866089,584.386047 600.928833,591.011841 596.640137,595.556763 
	C592.071167,600.398682 585.039429,600.110046 579.328308,594.844116 
	C572.223267,588.292908 565.218567,581.628540 557.984436,575.223083 
	C551.986145,569.911865 543.911438,571.938477 541.413086,579.159058 
	C539.927185,583.453491 541.290710,586.995422 544.443176,590.003906 
	C549.385742,594.720886 554.370850,599.393494 559.282959,604.141846 
	C562.058838,606.825195 564.161377,609.886414 561.996216,613.866638 
	C559.779297,617.941895 555.809692,619.346619 551.751343,618.047668 
	C546.906189,616.496826 542.370361,613.932251 537.805359,611.601562 
	C537.052734,611.217346 536.263245,609.639099 536.457886,608.851807 
	C540.946594,590.700745 533.514038,578.547607 517.436340,570.840393 
	C520.988892,551.741455 511.252808,535.805542 491.237854,532.426025 
	C489.403900,506.392944 464.377350,496.685242 446.209717,506.579346 
	C441.193542,496.886932 433.621277,490.391113 422.378479,489.213562 
	C411.150940,488.037598 402.393677,492.949219 394.170349,502.015717 
	C390.243011,495.542450 386.174744,489.915863 383.203888,483.759644 
	C367.525818,451.271637 374.658386,410.928345 400.594666,383.757904 
	C419.325836,364.135468 441.722534,352.932770 469.384705,354.079926 
	C481.220001,354.570770 492.222565,358.020844 502.904144,364.214081 
	C495.489960,372.018127 488.323914,379.573395 481.144073,387.115509 
	C470.343781,398.460754 459.464722,409.732300 448.782135,421.187164 
	C446.446625,423.691589 444.181793,426.596985 442.962708,429.736420 
	C440.564331,435.912933 442.745178,441.470520 448.668274,445.803802 
	C467.377014,459.490723 487.278625,459.225464 507.100159,449.264618 
	C515.601807,444.992310 522.918152,438.328369 530.669800,432.611145 
	C534.284485,429.945129 537.557495,426.817749 541.153748,424.124268 
	C548.809082,418.390778 554.148254,418.702820 561.028381,425.430664 
	C579.496582,443.489929 597.886169,461.629639 616.295776,479.748749 
	C629.835205,493.074554 643.334900,506.440796 656.897278,519.743225 
	C662.631653,525.367676 663.583984,531.612000 659.274780,536.464844 
	C654.739807,541.571960 647.471863,541.593384 641.609192,536.026367 
	C622.517639,517.897461 603.559692,499.627960 584.565125,481.397156 
	C581.407288,478.366333 578.031738,476.253693 573.377563,477.708466 
	C569.253357,478.997620 566.374878,482.028503 566.461426,485.946167 
	C566.538086,489.410370 567.858215,493.763550 570.226868,496.114807 
	C588.200867,513.956299 606.566284,531.403442 624.815857,548.967163 
	C626.256042,550.353149 627.809387,551.626465 629.196228,553.062195 
	C634.028625,558.064941 634.411743,564.169678 630.241333,568.683228 
	C625.798462,573.491638 618.814026,573.844604 613.707642,569.165527 
	C603.387817,559.709290 593.218933,550.088074 582.995483,540.526733 
	C573.502136,531.648315 564.015564,522.762634 554.532715,513.873047 
	C551.187317,510.737000 547.274475,509.588745 543.056091,511.462097 
	C539.112366,513.213501 536.562561,516.601746 537.081055,520.959534 
	C537.409912,523.723450 538.965271,526.557556 540.634216,528.884094 
	C542.249146,531.135315 544.713928,532.776855 547.064575,534.929810 
z"/>
<path fill="#FFFBFC" opacity="1.000000" stroke="none" 
	d="
M638.334900,472.664062 
	C617.636536,452.335114 597.173767,432.270782 576.753784,412.162994 
	C561.592102,397.233124 547.838440,395.535156 530.223267,407.292511 
	C523.200745,411.979706 517.045410,417.949615 510.356415,423.157318 
	C501.429901,430.107056 491.785034,435.773499 480.105743,435.977631 
	C475.486755,436.058380 470.841919,434.659424 466.208832,433.934204 
	C466.151581,433.402252 466.094330,432.870270 466.037079,432.338287 
	C472.231232,425.867645 478.413971,419.385986 484.622131,412.928833 
	C495.010925,402.123383 504.740295,390.568787 515.937500,380.676819 
	C553.493774,347.498291 613.209412,342.029114 653.748474,380.377441 
	C675.705078,401.147491 686.749023,426.810730 683.936707,457.507507 
	C682.568115,472.445557 674.823547,489.260559 665.187256,499.006165 
	C656.324219,490.310455 647.456543,481.610260 638.334900,472.664062 
z"/>
<path fill="#FEF5F6" opacity="1.000000" stroke="none" 
	d="
M460.550964,547.546997 
	C454.610046,553.638245 448.935883,559.498230 443.213440,565.310669 
	C438.299713,570.301758 431.831543,570.897461 427.749664,566.804688 
	C423.686462,562.730652 424.008209,556.723389 428.808258,551.760132 
	C436.791473,543.505493 444.845978,535.317932 452.973450,527.205261 
	C457.815857,522.371704 463.792816,521.769287 467.611755,525.465332 
	C471.612701,529.337463 471.382324,535.818787 466.981781,540.775330 
	C464.994049,543.014221 462.862885,545.125732 460.550964,547.546997 
z"/>
<path fill="#FFF5F6" opacity="1.000000" stroke="none" 
	d="
M493.829102,570.966675 
	C493.504211,571.004028 493.263641,571.166382 492.790283,571.760254 
	C492.299683,572.373230 492.126160,572.679626 491.952606,572.986023 
	C491.952606,572.986023 491.999847,573.000854 491.701233,573.076172 
	C490.774353,573.920166 490.146118,574.688904 489.517853,575.457642 
	C489.517822,575.457581 489.535675,575.545105 489.229675,575.660156 
	C488.474335,576.385925 488.024994,576.996582 487.575623,577.607178 
	C487.575623,577.607178 487.820831,578.033386 487.400269,577.957642 
	C485.571533,579.518616 484.163330,581.155457 482.755157,582.792236 
	C482.755157,582.792236 482.870697,582.866516 482.577728,582.883667 
	C482.106445,583.211426 481.928131,583.522095 481.749817,583.832764 
	C481.749817,583.832764 481.859406,583.859070 481.576172,583.879028 
	C481.112396,584.210205 480.931854,584.521545 480.751282,584.832825 
	C480.751282,584.832825 480.858704,584.859314 480.575378,584.883606 
	C480.119934,585.226135 479.947815,585.544434 479.775696,585.862671 
	C479.775696,585.862671 479.881439,585.882507 479.602661,585.916626 
	C479.161652,586.273132 478.999420,586.595581 478.837219,586.918091 
	C478.837250,586.918091 478.929169,586.928589 478.654602,586.961670 
	C478.204468,587.305664 478.028931,587.616577 477.853363,587.927490 
	C477.853363,587.927490 477.937775,587.938721 477.662842,587.970703 
	C477.225769,588.321655 477.063660,588.640625 476.901550,588.959595 
	C476.901550,588.959595 476.976868,588.974854 476.703491,589.011841 
	C476.259552,589.354980 476.088989,589.661072 475.918457,589.967163 
	C475.918427,589.967163 475.987549,589.987793 475.712952,590.021240 
	C475.276581,590.364563 475.114777,590.674438 474.953003,590.984375 
	C474.953033,590.984375 475.001068,590.999573 474.728729,591.056885 
	C474.136932,591.539062 473.817474,591.964050 473.498047,592.388977 
	C473.498047,592.388977 473.440887,592.500916 473.196106,592.643738 
	C472.701508,592.991760 472.578766,593.255981 472.583130,593.579163 
	C472.713440,593.721863 472.843781,593.864624 472.547882,593.851624 
	C471.828247,593.855713 471.646545,594.099060 471.576569,594.425720 
	C471.576569,594.425720 471.548767,594.508850 471.143860,594.634277 
	C467.200623,595.093933 463.662292,595.428223 460.123932,595.762512 
	C460.123932,595.762512 460.109528,595.867615 460.013611,595.582642 
	C459.392120,595.050659 458.866608,594.803589 458.341064,594.556519 
	C458.341064,594.556519 458.191589,594.748840 458.203735,594.431152 
	C457.915344,593.953186 457.614838,593.792908 457.314301,593.632629 
	C457.314301,593.632629 457.269836,593.766785 457.269745,593.450684 
	C456.874695,592.716919 456.479736,592.299194 456.084778,591.881531 
	C456.084778,591.881531 456.030121,591.963074 456.039337,591.555908 
	C453.805328,586.618225 455.570374,582.810425 458.210114,579.160400 
	C458.210114,579.160400 458.114502,579.121582 458.393616,579.089233 
	C458.846802,578.740906 459.020844,578.424988 459.194885,578.109009 
	C459.194885,578.109009 459.092651,578.091919 459.372253,578.067505 
	C459.828888,577.728455 460.005920,577.413818 460.182983,577.099182 
	C460.183014,577.099182 460.083984,577.085266 460.361328,577.056335 
	C460.815094,576.713989 460.991486,576.400513 461.167877,576.087097 
	C461.167877,576.087097 461.073395,576.073425 461.350952,576.048340 
	C461.807434,575.710632 461.986359,575.398132 462.165283,575.085632 
	C462.165314,575.085632 462.072021,575.072083 462.349182,575.046997 
	C462.806213,574.710388 462.986053,574.398804 463.165924,574.087219 
	C463.165924,574.087219 463.073029,574.073303 463.349915,574.047607 
	C463.807068,573.710876 463.987335,573.399780 464.167603,573.088745 
	C464.167603,573.088745 464.073853,573.074219 464.351135,573.051758 
	C464.815338,572.722534 465.002258,572.415833 465.189209,572.109070 
	C465.189209,572.109070 465.090393,572.090271 465.369690,572.069702 
	C465.831451,571.737610 466.013916,571.426025 466.196381,571.114502 
	C466.196381,571.114502 466.095886,571.096375 466.374512,571.071655 
	C466.833374,570.735168 467.013611,570.423523 467.193878,570.111816 
	C467.193878,570.111816 467.094208,570.094238 467.373047,570.067871 
	C467.827942,569.727112 468.003998,569.412781 468.180054,569.098450 
	C468.180054,569.098450 468.083527,569.084778 468.359894,569.054199 
	C468.812225,568.711182 468.988190,568.398743 469.164185,568.086365 
	C469.164185,568.086365 469.072937,568.072815 469.349518,568.045776 
	C469.803711,567.706848 469.981293,567.394897 470.158905,567.083008 
	C470.158936,567.083008 470.070038,567.070068 470.346375,567.041931 
	C470.797668,566.700745 470.972626,566.387695 471.147644,566.074707 
	C471.147644,566.074707 471.063263,566.063660 471.339111,566.033142 
	C471.786896,565.689087 471.958832,565.375488 472.130737,565.061951 
	C472.130737,565.061951 472.049744,565.050476 472.323608,565.017029 
	C472.767639,564.671570 472.937805,564.359558 473.107971,564.047546 
	C473.108002,564.047546 473.030914,564.030518 473.307373,564.000122 
	C473.747253,563.655884 473.910675,563.342041 474.074097,563.028198 
	C474.074097,563.028198 474.006073,563.007324 474.315735,562.935120 
	C475.242096,562.068787 475.858734,561.274719 476.475403,560.480652 
	C476.475403,560.480652 476.428345,560.368347 476.761292,560.250732 
	C478.531830,558.616211 479.969421,557.099304 481.407043,555.582458 
	C481.407043,555.582458 481.416931,555.495605 481.729462,555.418091 
	C482.417297,554.939026 482.792603,554.537537 483.167847,554.135986 
	C483.167847,554.135986 483.062561,554.064148 483.477295,554.060547 
	C487.809204,552.027832 491.388184,553.171143 494.869812,555.227356 
	C494.869812,555.227356 494.890900,555.114929 494.906219,555.392639 
	C495.217682,555.866455 495.513855,556.062500 495.809998,556.258606 
	C495.809998,556.258606 495.839691,556.137268 495.830566,556.445923 
	C496.188324,557.205444 496.555145,557.656372 496.921997,558.107239 
	C496.921997,558.107239 496.970093,558.039856 496.936340,558.482666 
	C496.213776,562.579224 495.524994,566.232971 494.836243,569.886780 
	C494.836273,569.886780 494.924530,569.915955 494.646149,569.961182 
	C494.188202,570.326477 494.008667,570.646606 493.829102,570.966675 
z"/>
<path fill="#FEF3F4" opacity="1.000000" stroke="none" 
	d="
M397.516785,531.332031 
	C398.613007,528.936035 399.277405,526.599548 400.723145,524.946411 
	C404.322205,520.831177 408.235931,516.986023 412.100250,513.109131 
	C416.379852,508.815613 421.569550,508.376953 425.377533,511.871094 
	C429.310211,515.479614 429.562500,521.346252 425.671661,525.700623 
	C422.026886,529.779724 418.012115,533.526733 414.326691,537.571594 
	C411.353699,540.834595 407.904968,542.348999 403.658722,540.874695 
	C399.428894,539.406067 397.420197,536.179932 397.516785,531.332031 
z"/>
<path fill="#FEF2F3" opacity="1.000000" stroke="none" 
	d="
M501.416992,593.307373 
	C506.456909,589.432312 510.713165,589.258789 514.204956,592.543152 
	C517.761169,595.888123 518.297180,601.353455 514.921631,605.639526 
	C511.850677,609.538818 508.423950,613.213806 504.793457,616.601135 
	C501.144470,620.005615 495.183594,619.396118 491.761810,615.751221 
	C488.362427,612.130127 488.219696,606.988953 491.701599,603.141052 
	C494.709076,599.817444 497.993774,596.744629 501.416992,593.307373 
z"/>
<path fill="#B7292F" opacity="1.000000" stroke="none" 
	d="
M495.217102,569.886719 
	C495.524994,566.232971 496.213776,562.579224 496.894958,558.481995 
	C500.167328,561.614441 499.631683,566.536499 495.217102,569.886719 
z"/>
<path fill="#B7292F" opacity="1.000000" stroke="none" 
	d="
M460.243652,596.137451 
	C463.662292,595.428223 467.200623,595.093933 471.101288,594.623901 
	C469.296387,598.519836 465.135162,599.278687 460.243652,596.137451 
z"/>
<path fill="#B7292F" opacity="1.000000" stroke="none" 
	d="
M457.825806,579.142029 
	C455.570374,582.810425 453.805328,586.618225 456.085938,591.540466 
	C452.478333,588.931091 453.157990,582.327026 457.825806,579.142029 
z"/>
<path fill="#B7292F" opacity="1.000000" stroke="none" 
	d="
M494.785095,554.874512 
	C491.388184,553.171143 487.809204,552.027832 483.504639,554.118103 
	C486.077393,550.161255 490.379639,550.288452 494.785095,554.874512 
z"/>
<path fill="#B7292F" opacity="1.000000" stroke="none" 
	d="
M481.055481,555.430420 
	C479.969421,557.099304 478.531830,558.616211 476.817078,560.275085 
	C477.927887,558.704224 479.315887,556.991272 481.055481,555.430420 
z"/>
<path fill="#B7292F" opacity="1.000000" stroke="none" 
	d="
M483.121094,582.830078 
	C484.163330,581.155457 485.571533,579.518616 487.270325,577.746887 
	C486.202942,579.363892 484.845001,581.115906 483.121094,582.830078 
z"/>
<path fill="#B7292F" opacity="1.000000" stroke="none" 
	d="
M476.125061,560.426636 
	C475.858734,561.274719 475.242096,562.068787 474.334351,562.965454 
	C474.620422,562.169617 475.197601,561.271118 476.125061,560.426636 
z"/>
<path fill="#B7292F" opacity="1.000000" stroke="none" 
	d="
M489.861877,575.529419 
	C490.146118,574.688904 490.774353,573.920166 491.690186,573.054077 
	C491.387115,573.838135 490.796509,574.719666 489.861877,575.529419 
z"/>
<path fill="#B7292F" opacity="1.000000" stroke="none" 
	d="
M487.924500,577.628784 
	C488.024994,576.996582 488.474335,576.385925 489.185669,575.652466 
	C489.056213,576.236633 488.664764,576.943542 487.924500,577.628784 
z"/>
<path fill="#B7292F" opacity="1.000000" stroke="none" 
	d="
M482.828430,554.116943 
	C482.792603,554.537537 482.417297,554.939026 481.772644,555.424927 
	C481.831848,555.038818 482.160400,554.568359 482.828430,554.116943 
z"/>
<path fill="#B7292F" opacity="1.000000" stroke="none" 
	d="
M496.939514,557.780518 
	C496.555145,557.656372 496.188324,557.205444 495.769653,556.459595 
	C496.130859,556.594299 496.543945,557.024048 496.939514,557.780518 
z"/>
<path fill="#B7292F" opacity="1.000000" stroke="none" 
	d="
M473.814819,592.463501 
	C473.817474,591.964050 474.136932,591.539062 474.715851,591.035156 
	C474.694061,591.483521 474.412811,592.010803 473.814819,592.463501 
z"/>
<path fill="#B7292F" opacity="1.000000" stroke="none" 
	d="
M456.072571,592.214111 
	C456.479736,592.299194 456.874695,592.716919 457.335571,593.425049 
	C456.954437,593.325806 456.507416,592.936279 456.072571,592.214111 
z"/>
<path fill="#B7292F" opacity="1.000000" stroke="none" 
	d="
M458.377716,594.892090 
	C458.866608,594.803589 459.392120,595.050659 460.059265,595.555664 
	C459.605377,595.618408 459.009857,595.423096 458.377716,594.892090 
z"/>
<path fill="#B7292F" opacity="1.000000" stroke="none" 
	d="
M495.761505,555.978882 
	C495.513855,556.062500 495.217682,555.866455 494.850098,555.403564 
	C495.090088,555.324158 495.401550,555.511658 495.761505,555.978882 
z"/>
<path fill="#B7292F" opacity="1.000000" stroke="none" 
	d="
M475.200592,590.894287 
	C475.114777,590.674438 475.276581,590.364563 475.702148,589.986816 
	C475.793365,590.214050 475.620789,590.509155 475.200592,590.894287 
z"/>
<path fill="#B7292F" opacity="1.000000" stroke="none" 
	d="
M476.172546,589.882324 
	C476.088989,589.661072 476.259552,589.354980 476.692871,588.974854 
	C476.779297,589.199768 476.602936,589.498596 476.172546,589.882324 
z"/>
<path fill="#B7292F" opacity="1.000000" stroke="none" 
	d="
M477.157837,588.868591 
	C477.063660,588.640625 477.225769,588.321655 477.656647,587.928589 
	C477.754974,588.162170 477.584564,588.469849 477.157837,588.868591 
z"/>
<path fill="#B7292F" opacity="1.000000" stroke="none" 
	d="
M478.118896,587.848633 
	C478.028931,587.616577 478.204468,587.305664 478.646362,586.916138 
	C478.736603,587.148315 478.560547,587.459106 478.118896,587.848633 
z"/>
<path fill="#B7292F" opacity="1.000000" stroke="none" 
	d="
M472.872864,593.586182 
	C472.578766,593.255981 472.701508,592.991760 473.153015,592.689514 
	C473.290710,592.926025 473.226685,593.259583 472.872864,593.586182 
z"/>
<path fill="#B7292F" opacity="1.000000" stroke="none" 
	d="
M479.105164,586.832886 
	C478.999420,586.595581 479.161652,586.273132 479.589935,585.864319 
	C479.695068,586.101196 479.534119,586.424438 479.105164,586.832886 
z"/>
<path fill="#B7292F" opacity="1.000000" stroke="none" 
	d="
M480.052856,585.794128 
	C479.947815,585.544434 480.119934,585.226135 480.561737,584.829956 
	C480.664276,585.076599 480.497131,585.401062 480.052856,585.794128 
z"/>
<path fill="#B7292F" opacity="1.000000" stroke="none" 
	d="
M481.032288,584.775269 
	C480.931854,584.521545 481.112396,584.210205 481.562408,583.824341 
	C481.659027,584.072449 481.486176,584.395081 481.032288,584.775269 
z"/>
<path fill="#B7292F" opacity="1.000000" stroke="none" 
	d="
M457.338440,593.927979 
	C457.614838,593.792908 457.915344,593.953186 458.303650,594.361572 
	C458.048492,594.480774 457.705536,594.352051 457.338440,593.927979 
z"/>
<path fill="#B7292F" opacity="1.000000" stroke="none" 
	d="
M482.030853,583.773804 
	C481.928131,583.522095 482.106445,583.211426 482.550903,582.820435 
	C482.648621,583.065063 482.480255,583.390015 482.030853,583.773804 
z"/>
<path fill="#B7292F" opacity="1.000000" stroke="none" 
	d="
M471.863281,594.490295 
	C471.646545,594.099060 471.828247,593.855713 472.348724,593.640198 
	C472.433899,593.908020 472.291931,594.231445 471.863281,594.490295 
z"/>
<path fill="#B7292F" opacity="1.000000" stroke="none" 
	d="
M458.921417,578.183228 
	C459.020844,578.424988 458.846802,578.740906 458.405945,579.139343 
	C458.308746,578.900391 458.478363,578.578979 458.921417,578.183228 
z"/>
<path fill="#B7292F" opacity="1.000000" stroke="none" 
	d="
M494.098541,570.876465 
	C494.008667,570.646606 494.188202,570.326477 494.636200,569.915771 
	C494.725739,570.145508 494.546844,570.465881 494.098541,570.876465 
z"/>
<path fill="#B7292F" opacity="1.000000" stroke="none" 
	d="
M473.821350,563.116577 
	C473.910675,563.342041 473.747253,563.655884 473.316467,564.038574 
	C473.222260,563.806580 473.395416,563.505798 473.821350,563.116577 
z"/>
<path fill="#B7292F" opacity="1.000000" stroke="none" 
	d="
M472.848633,564.130981 
	C472.937805,564.359558 472.767639,564.671570 472.330994,565.057251 
	C472.239471,564.825378 472.414398,564.519836 472.848633,564.130981 
z"/>
<path fill="#B7292F" opacity="1.000000" stroke="none" 
	d="
M471.867920,565.142700 
	C471.958832,565.375488 471.786896,565.689087 471.345703,566.075195 
	C471.252655,565.839661 471.428864,565.531494 471.867920,565.142700 
z"/>
<path fill="#B7292F" opacity="1.000000" stroke="none" 
	d="
M470.882263,566.152710 
	C470.972626,566.387695 470.797668,566.700745 470.353302,567.086304 
	C470.261566,566.849426 470.439209,566.540039 470.882263,566.152710 
z"/>
<path fill="#B7292F" opacity="1.000000" stroke="none" 
	d="
M469.891663,567.158447 
	C469.981293,567.394897 469.803711,567.706848 469.356750,568.091370 
	C469.266418,567.853943 469.445435,567.543945 469.891663,567.158447 
z"/>
<path fill="#B7292F" opacity="1.000000" stroke="none" 
	d="
M468.895691,568.162720 
	C468.988190,568.398743 468.812225,568.711182 468.369141,569.102051 
	C468.277069,568.866699 468.452118,568.552856 468.895691,568.162720 
z"/>
<path fill="#B7292F" opacity="1.000000" stroke="none" 
	d="
M467.909790,569.173401 
	C468.003998,569.412781 467.827942,569.727112 467.382263,570.117554 
	C467.288269,569.878601 467.463928,569.563477 467.909790,569.173401 
z"/>
<path fill="#B7292F" opacity="1.000000" stroke="none" 
	d="
M466.921326,570.182007 
	C467.013611,570.423523 466.833374,570.735168 466.383789,571.121826 
	C466.292572,570.881897 466.470642,570.567078 466.921326,570.182007 
z"/>
<path fill="#B7292F" opacity="1.000000" stroke="none" 
	d="
M459.912109,577.173706 
	C460.005920,577.413818 459.828888,577.728455 459.381287,578.118530 
	C459.287567,577.878723 459.464417,577.563477 459.912109,577.173706 
z"/>
<path fill="#B7292F" opacity="1.000000" stroke="none" 
	d="
M465.923401,571.182617 
	C466.013916,571.426025 465.831451,571.737610 465.377563,572.119385 
	C465.287567,571.876709 465.468994,571.563721 465.923401,571.182617 
z"/>
<path fill="#B7292F" opacity="1.000000" stroke="none" 
	d="
M464.916992,572.175049 
	C465.002258,572.415833 464.815338,572.722534 464.358032,573.098694 
	C464.273407,572.859070 464.459076,572.550049 464.916992,572.175049 
z"/>
<path fill="#B7292F" opacity="1.000000" stroke="none" 
	d="
M492.205719,572.891663 
	C492.126160,572.679626 492.299683,572.373230 492.732239,571.977539 
	C492.813812,572.191223 492.636322,572.494263 492.205719,572.891663 
z"/>
<path fill="#B7292F" opacity="1.000000" stroke="none" 
	d="
M463.898895,573.162354 
	C463.987335,573.399780 463.807068,573.710876 463.356934,574.093994 
	C463.268127,573.856079 463.449158,573.546021 463.898895,573.162354 
z"/>
<path fill="#B7292F" opacity="1.000000" stroke="none" 
	d="
M462.897461,574.161255 
	C462.986053,574.398804 462.806213,574.710388 462.356140,575.093628 
	C462.266937,574.855347 462.447968,574.545349 462.897461,574.161255 
z"/>
<path fill="#B7292F" opacity="1.000000" stroke="none" 
	d="
M461.896851,575.160583 
	C461.986359,575.398132 461.807434,575.710632 461.358154,576.095459 
	C461.268005,575.857056 461.448212,575.546326 461.896851,575.160583 
z"/>
<path fill="#B7292F" opacity="1.000000" stroke="none" 
	d="
M460.898529,576.163452 
	C460.991486,576.400513 460.815094,576.713989 460.370483,577.105469 
	C460.277954,576.868958 460.453583,576.554382 460.898529,576.163452 
z"/>
</svg>
